#!OML:ASF H:\Terrain\Patient Classification 1\Walking\liu\liu.ASF
:FULLY-SPECIFIED
:DEGREES
1
root 8.212523 17.593071 -40.405312 7.824916 1.446357 -4.034536
lowerback -4.729032 0.208344 1.033341
upperback -1.670746 0.203707 2.812722
thorax 0.929600 0.105636 2.317755
lowerneck -20.523689 -5.691554 -14.671360
upperneck 15.047670 -7.294177 18.615959
head 9.228934 -2.510112 7.887308
rclavicle 0.000000 0.000000
rhumerus -42.645679 19.200609 -92.513412
rradius 61.818787
rwrist -31.426559
rhand -36.521648 -28.326431
rfingers 7.837522
rthumb -7.049570 -61.197838
lclavicle 0.000000 0.000000
lhumerus -39.519371 -3.276405 94.879845
lradius 30.146160
lwrist 8.036127
lhand -14.630330 -25.323210
lfingers 7.837522
lthumb 14.084180 7.222864
rfemur -10.887812 5.199249 33.120888
rtibia 26.531780
rfoot 0.000000 0.000000
rtoes 0.000000
lfemur -44.758671 7.064838 -17.986761
ltibia 48.301659
lfoot -16.080460 9.181337
ltoes -13.033569
2
root 8.216769 17.589991 -40.270893 7.671004 1.294447 -3.770459
lowerback -4.432417 0.137189 0.755279
upperback -1.917751 0.134713 2.650351
thorax 0.512413 0.072979 2.301585
lowerneck -20.140120 -5.441832 -14.152600
upperneck 15.378880 -7.100588 18.257912
head 9.202941 -2.434465 7.702486
rclavicle 0.000000 0.000000
rhumerus -43.225819 19.208309 -92.938560
rradius 62.609470
rwrist -32.761959
rhand -35.759789 -29.374620
rfingers 7.837522
rthumb -6.314110 -62.267040
lclavicle 0.000000 0.000000
lhumerus -40.274849 -3.361688 94.821762
lradius 30.365499
lwrist 8.113490
lhand -14.577970 -26.045580
lfingers 7.837522
lthumb 14.134560 6.497392
rfemur -10.015754 5.492641 32.875370
rtibia 26.172190
rfoot 0.000000 0.000000
rtoes 0.000000
lfemur -44.694542 6.561379 -18.060459
ltibia 45.941608
lfoot -15.883560 8.574082
ltoes -12.816540
3
root 8.215515 17.579870 -40.141418 7.782456 1.122682 -3.763144
lowerback -4.677948 0.229340 0.587553
upperback -1.944613 0.259248 2.679094
thorax 0.617147 0.135910 2.432243
lowerneck -20.334379 -5.416829 -13.838441
upperneck 15.901930 -7.158272 18.074100
head 9.401942 -2.445069 7.590385
rclavicle -0.000000 0.000000
rhumerus -43.302486 19.088520 -92.906326
rradius 63.387501
rwrist -34.267200
rhand -34.608749 -30.001289
rfingers 7.837522
rthumb -5.202692 -62.921211
lclavicle -0.000000 0.000000
lhumerus -40.214348 -3.365461 94.985771
lradius 30.126581
lwrist 7.747498
lhand -14.137860 -26.279881
lfingers 7.837522
lthumb 14.558830 6.235944
rfemur -9.276355 5.893910 32.917061
rtibia 25.590401
rfoot 0.000000 0.000000
rtoes 0.000000
lfemur -45.075691 6.216353 -17.852119
ltibia 43.896160
lfoot -15.869261 7.943298
ltoes -12.187340
4
root 8.221599 17.574591 -40.005791 7.860644 0.883572 -4.055788
lowerback -5.077039 0.520814 0.902310
upperback -1.874587 0.622481 2.840497
thorax 0.900448 0.316170 2.443232
lowerneck -19.670200 -5.776848 -14.932500
upperneck 15.276250 -7.444998 18.484840
head 9.178642 -2.642002 7.870918
rclavicle 0.000000 0.000000
rhumerus -43.297867 18.914169 -92.542236
rradius 63.899658
rwrist -35.416920
rhand -34.667049 -30.362860
rfingers 7.837522
rthumb -5.258990 -63.281460
lclavicle 0.000000 0.000000
lhumerus -40.148567 -4.166129 95.859169
lradius 30.250000
lwrist 7.998617
lhand -13.096490 -25.782789
lfingers 7.837522
lthumb 15.562470 6.665373
rfemur -8.510656 5.962099 33.231659
rtibia 25.025108
rfoot 0.000000 0.000000
rtoes 0.000000
lfemur -45.316261 6.135866 -17.453150
ltibia 41.730259
lfoot -15.248530 8.013412
ltoes -12.123321
5
root 8.236712 17.573709 -39.860481 7.735233 0.560036 -4.115386
lowerback -5.274610 0.496116 0.972168
upperback -1.670119 0.574658 2.908675
thorax 1.222232 0.290796 2.475264
lowerneck -19.865341 -5.596360 -15.256340
upperneck 15.232250 -7.169283 18.958721
head 9.184417 -2.479906 8.140945
rclavicle 0.000000 0.000000
rhumerus -43.026829 19.462410 -92.684128
rradius 64.357147
rwrist -36.394821
rhand -34.752850 -31.670870
rfingers 7.837522
rthumb -5.341798 -64.587708
lclavicle 0.000000 0.000000
lhumerus -40.280682 -4.713577 96.453171
lradius 30.794390
lwrist 8.669320
lhand -12.945351 -24.848671
lfingers 7.837522
lthumb 15.708110 7.589263
rfemur -7.446329 5.937536 33.254101
rtibia 24.341570
rfoot 0.000000 0.000000
rtoes 0.000000
lfemur -45.197350 5.772987 -17.182550
ltibia 39.604511
lfoot -14.862869 8.349352
ltoes -11.794311
